<svg width="56" height="56" viewBox="0 0 56 56" fill="none" xmlns="http://www.w3.org/2000/svg">
<circle cx="28" cy="28" r="28" fill="#DC2328"/>
<path d="M30.0137 28.2237C29.8858 28.0959 29.8858 27.9041 30.0137 27.7763L34.8082 22.9817C34.9361 22.8539 35 22.6621 35 22.5342C35 22.4064 34.9361 22.2146 34.8082 22.0868L33.9132 21.1918C33.7854 21.0639 33.5936 21 33.4658 21C33.274 21 33.1461 21.0639 33.0183 21.1918L28.2237 25.9863C28.0959 26.1142 27.9041 26.1142 27.7763 25.9863L22.9817 21.1918C22.8539 21.0639 22.6621 21 22.5342 21C22.4064 21 22.2146 21.0639 22.0868 21.1918L21.1918 22.0868C21.0639 22.2146 21 22.4064 21 22.5342C21 22.6621 21.0639 22.8539 21.1918 22.9817L25.9863 27.7763C26.1142 27.9041 26.1142 28.0959 25.9863 28.2237L21.1918 33.0183C21.0639 33.1461 21 33.3379 21 33.4658C21 33.5936 21.0639 33.7854 21.1918 33.9132L22.0868 34.8082C22.2146 34.9361 22.4064 35 22.5342 35C22.6621 35 22.8539 34.9361 22.9817 34.8082L27.7763 30.0137C27.9041 29.8858 28.0959 29.8858 28.2237 30.0137L33.0183 34.8082C33.1461 34.9361 33.3379 35 33.4658 35C33.5936 35 33.7854 34.9361 33.9132 34.8082L34.8082 33.9132C34.9361 33.7854 35 33.5936 35 33.4658C35 33.3379 34.9361 33.1461 34.8082 33.0183L30.0137 28.2237Z" fill="white"/>
</svg>
