<svg width="56" height="56" viewBox="0 0 56 56" fill="none" xmlns="http://www.w3.org/2000/svg">
<circle cx="28" cy="28" r="28" fill="#003594"/>
<path d="M20.1846 28.6154C20.0615 28.4923 20 28.3077 20 28.1846C20 28.0615 20.0615 27.8769 20.1846 27.7539L21.0462 26.8923C21.2923 26.6462 21.6615 26.6462 21.9077 26.8923L21.9692 26.9539L25.3538 30.5846C25.4769 30.7077 25.6615 30.7077 25.7846 30.5846L34.0308 22.0308H34.0923C34.3385 21.7846 34.7077 21.7846 34.9538 22.0308L35.8154 22.8923C36.0615 23.1385 36.0615 23.5077 35.8154 23.7539L25.9692 33.9692C25.8462 34.0923 25.7231 34.1539 25.5385 34.1539C25.3538 34.1539 25.2308 34.0923 25.1077 33.9692L20.3077 28.8L20.1846 28.6154Z" fill="white"/>
</svg>
